<svg width="651" height="469" viewBox="0 0 651 469" fill="none" xmlns="http://www.w3.org/2000/svg">
<g clip-path="url(#clip0)">
<circle cx="60.5" cy="291.5" r="60.5" fill="black"/>
<ellipse cx="216.5" cy="304.5" rx="60.5" ry="48.5" fill="black"/>
<circle cx="372.5" cy="292.5" r="60.5" fill="black"/>
<rect x="597" width="77" height="193" rx="4" transform="rotate(90 597 0)" fill="black"/>
<rect x="431" width="77" height="193" rx="20" transform="rotate(90 431 0)" fill="black"/>
<path d="M166.5 -5.82217e-06L277 77L84 77L84 -5.76003e-06L166.5 -5.82217e-06Z" fill="black"/>
<path d="M611.308 304.375C608.896 313.02 601.019 319 592.044 319L570.74 319C557.384 319 547.781 306.161 551.554 293.35L588.567 167.674C589.637 164.042 589.654 160.182 588.616 156.542L551.263 25.4819C547.622 12.7084 557.215 -8.19899e-06 570.497 -7.03782e-06L591.911 -5.16569e-06C600.949 -4.37557e-06 608.864 6.06115 611.22 14.7865L649.569 156.814C650.506 160.284 650.49 163.941 649.525 167.403L611.308 304.375Z" fill="black"/>
<rect x="597" y="261" width="58" height="193" rx="20" transform="rotate(90 597 261)" fill="black"/>
<path d="M63 20.0001C63 8.95436 71.9543 6.10352e-05 83 6.10352e-05H121V294H63V20.0001Z" fill="black"/>
<path d="M219 20.0001C219 8.95436 227.954 6.10352e-05 239 6.10352e-05H277V305H219V20.0001Z" fill="black"/>
<path d="M375 6.10352e-05H413C424.046 6.10352e-05 433 8.95437 433 20.0001V305H375V6.10352e-05Z" fill="black"/>
<rect x="29" y="158" width="568" height="9" fill="black"/>
<path d="M65.656 402.76C66.04 402.12 66.616 401.8 67.384 401.8H82.36C82.808 401.8 83.16 401.928 83.416 402.184C83.672 402.44 83.8 402.792 83.8 403.24V467.56C83.8 468.008 83.672 468.36 83.416 468.616C83.16 468.872 82.808 469 82.36 469H67.192C66.744 469 66.392 468.872 66.136 468.616C65.88 468.36 65.752 468.008 65.752 467.56V432.712C65.752 432.456 65.688 432.328 65.56 432.328C65.432 432.264 65.304 432.328 65.176 432.52L58.648 443.176C58.264 443.816 57.688 444.136 56.92 444.136H49.624C48.856 444.136 48.28 443.816 47.896 443.176L41.368 432.52C41.24 432.328 41.112 432.264 40.984 432.328C40.856 432.328 40.792 432.456 40.792 432.712V467.56C40.792 468.008 40.664 468.36 40.408 468.616C40.152 468.872 39.8 469 39.352 469H24.184C23.736 469 23.384 468.872 23.128 468.616C22.872 468.36 22.744 468.008 22.744 467.56V403.24C22.744 402.792 22.872 402.44 23.128 402.184C23.384 401.928 23.736 401.8 24.184 401.8H39.16C39.928 401.8 40.504 402.12 40.888 402.76L52.984 422.248C53.176 422.632 53.368 422.632 53.56 422.248L65.656 402.76ZM127.275 469.768C122.091 469.768 117.483 468.776 113.451 466.792C109.483 464.808 106.411 461.992 104.235 458.344C102.059 454.696 100.971 450.472 100.971 445.672V403.24C100.971 402.792 101.099 402.44 101.355 402.184C101.611 401.928 101.963 401.8 102.411 401.8H117.579C118.027 401.8 118.379 401.928 118.635 402.184C118.891 402.44 119.019 402.792 119.019 403.24V445.672C119.019 448.296 119.755 450.408 121.227 452.008C122.763 453.544 124.779 454.312 127.275 454.312C129.707 454.312 131.659 453.512 133.131 451.912C134.667 450.312 135.435 448.232 135.435 445.672V403.24C135.435 402.792 135.563 402.44 135.819 402.184C136.075 401.928 136.427 401.8 136.875 401.8H152.043C152.491 401.8 152.843 401.928 153.099 402.184C153.355 402.44 153.483 402.792 153.483 403.24V445.672C153.483 450.472 152.395 454.696 150.219 458.344C148.043 461.992 144.971 464.808 141.003 466.792C137.035 468.776 132.459 469.768 127.275 469.768ZM196.125 469.768C190.749 469.768 186.045 468.904 182.013 467.176C177.981 465.384 174.845 462.856 172.605 459.592C170.429 456.328 169.341 452.552 169.341 448.264V446.92C169.341 446.472 169.469 446.12 169.725 445.864C169.981 445.608 170.333 445.48 170.781 445.48H185.661C186.109 445.48 186.461 445.608 186.717 445.864C186.973 446.12 187.101 446.472 187.101 446.92V447.496C187.101 449.288 188.029 450.888 189.885 452.296C191.805 453.64 194.333 454.312 197.469 454.312C199.837 454.312 201.533 453.832 202.557 452.872C203.581 451.848 204.093 450.728 204.093 449.512C204.093 448.104 203.453 447.048 202.173 446.344C200.893 445.64 198.557 444.776 195.165 443.752L192.381 442.984C186.045 441.064 180.733 438.504 176.445 435.304C172.157 432.104 170.013 427.464 170.013 421.384C170.013 417.352 171.101 413.8 173.277 410.728C175.453 407.592 178.429 405.192 182.205 403.528C186.045 401.864 190.333 401.032 195.069 401.032C200.061 401.032 204.573 401.96 208.605 403.816C212.701 405.672 215.901 408.296 218.205 411.688C220.573 415.08 221.757 418.952 221.757 423.304V424.168C221.757 424.616 221.629 424.968 221.373 425.224C221.117 425.48 220.765 425.608 220.317 425.608H205.437C204.989 425.608 204.637 425.48 204.381 425.224C204.125 424.968 203.997 424.616 203.997 424.168V424.072C203.997 422.152 203.133 420.424 201.405 418.888C199.677 417.288 197.341 416.488 194.397 416.488C192.349 416.488 190.717 416.904 189.501 417.736C188.349 418.568 187.773 419.72 187.773 421.192C187.773 422.344 188.189 423.336 189.021 424.168C189.917 424.936 191.261 425.704 193.053 426.472C194.845 427.176 197.597 428.104 201.309 429.256C201.821 429.448 204.061 430.152 208.029 431.368C212.061 432.52 215.421 434.664 218.109 437.8C220.797 440.872 222.141 444.616 222.141 449.032C222.141 453.32 221.053 457.032 218.877 460.168C216.701 463.24 213.661 465.608 209.757 467.272C205.853 468.936 201.309 469.768 196.125 469.768ZM239.955 469C239.507 469 239.155 468.872 238.899 468.616C238.643 468.36 238.515 468.008 238.515 467.56V403.24C238.515 402.792 238.643 402.44 238.899 402.184C239.155 401.928 239.507 401.8 239.955 401.8H255.123C255.571 401.8 255.923 401.928 256.179 402.184C256.435 402.44 256.563 402.792 256.563 403.24V467.56C256.563 468.008 256.435 468.36 256.179 468.616C255.923 468.872 255.571 469 255.123 469H239.955ZM299.727 469.768C294.479 469.768 289.839 468.744 285.807 466.696C281.839 464.648 278.735 461.768 276.495 458.056C274.319 454.28 273.231 449.928 273.231 445V425.608C273.231 420.744 274.319 416.456 276.495 412.744C278.735 409.032 281.839 406.152 285.807 404.104C289.839 402.056 294.479 401.032 299.727 401.032C304.975 401.032 309.583 401.992 313.551 403.912C317.583 405.832 320.687 408.552 322.863 412.072C325.103 415.528 326.223 419.56 326.223 424.168C326.223 424.744 325.743 425.096 324.783 425.224L309.615 426.184H309.327C308.559 426.184 308.175 425.832 308.175 425.128C308.175 422.504 307.407 420.424 305.871 418.888C304.335 417.288 302.287 416.488 299.727 416.488C297.167 416.488 295.119 417.288 293.583 418.888C292.047 420.424 291.279 422.504 291.279 425.128V445.768C291.279 448.328 292.047 450.408 293.583 452.008C295.119 453.544 297.167 454.312 299.727 454.312C302.287 454.312 304.335 453.544 305.871 452.008C307.407 450.408 308.175 448.328 308.175 445.768C308.175 445.384 308.303 445.096 308.559 444.904C308.815 444.712 309.167 444.648 309.615 444.712L324.783 445.48C325.743 445.544 326.223 445.864 326.223 446.44C326.223 451.048 325.103 455.112 322.863 458.632C320.687 462.152 317.583 464.904 313.551 466.888C309.583 468.808 304.975 469.768 299.727 469.768ZM373.414 469C372.966 469 372.614 468.872 372.358 468.616C372.102 468.36 371.974 468.008 371.974 467.56V403.24C371.974 402.792 372.102 402.44 372.358 402.184C372.614 401.928 372.966 401.8 373.414 401.8H398.086C403.27 401.8 407.846 402.696 411.814 404.488C415.846 406.28 418.95 408.808 421.126 412.072C423.302 415.336 424.39 419.112 424.39 423.4V447.4C424.39 451.688 423.302 455.464 421.126 458.728C418.95 461.992 415.846 464.52 411.814 466.312C407.846 468.104 403.27 469 398.086 469H373.414ZM390.022 453.064C390.022 453.384 390.182 453.544 390.502 453.544H398.758C400.934 453.544 402.726 452.712 404.134 451.048C405.542 449.32 406.278 447.08 406.342 444.328V426.472C406.342 423.72 405.638 421.512 404.23 419.848C402.822 418.12 400.966 417.256 398.662 417.256H390.502C390.182 417.256 390.022 417.416 390.022 417.736V453.064ZM481.732 469C480.836 469 480.292 468.584 480.1 467.752L477.988 460.264C477.86 460.008 477.7 459.88 477.508 459.88H457.156C456.964 459.88 456.804 460.008 456.676 460.264L454.564 467.752C454.372 468.584 453.828 469 452.932 469H436.516C435.364 469 434.948 468.456 435.268 467.368L455.524 402.952C455.78 402.184 456.324 401.8 457.156 401.8H477.508C478.34 401.8 478.884 402.184 479.14 402.952L499.396 467.368C499.46 467.496 499.492 467.688 499.492 467.944C499.492 468.648 499.044 469 498.148 469H481.732ZM460.9 445.48C460.836 445.864 460.964 446.056 461.284 446.056H473.284C473.668 446.056 473.796 445.864 473.668 445.48L467.524 423.976C467.46 423.784 467.364 423.688 467.236 423.688C467.108 423.688 467.012 423.784 466.948 423.976L460.9 445.48ZM556.061 401.8C556.509 401.8 556.861 401.928 557.117 402.184C557.373 402.44 557.501 402.792 557.501 403.24V415.912C557.501 416.36 557.373 416.712 557.117 416.968C556.861 417.224 556.509 417.352 556.061 417.352H539.933C539.613 417.352 539.453 417.512 539.453 417.832V467.56C539.453 468.008 539.325 468.36 539.069 468.616C538.813 468.872 538.461 469 538.013 469H522.845C522.397 469 522.045 468.872 521.789 468.616C521.533 468.36 521.405 468.008 521.405 467.56V417.832C521.405 417.512 521.245 417.352 520.925 417.352H505.277C504.829 417.352 504.477 417.224 504.221 416.968C503.965 416.712 503.837 416.36 503.837 415.912V403.24C503.837 402.792 503.965 402.44 504.221 402.184C504.477 401.928 504.829 401.8 505.277 401.8H556.061ZM611.204 469C610.308 469 609.764 468.584 609.572 467.752L607.46 460.264C607.332 460.008 607.172 459.88 606.98 459.88H586.628C586.436 459.88 586.276 460.008 586.148 460.264L584.036 467.752C583.844 468.584 583.3 469 582.404 469H565.988C564.836 469 564.42 468.456 564.74 467.368L584.996 402.952C585.252 402.184 585.796 401.8 586.628 401.8H606.98C607.812 401.8 608.356 402.184 608.612 402.952L628.868 467.368C628.932 467.496 628.964 467.688 628.964 467.944C628.964 468.648 628.516 469 627.62 469H611.204ZM590.372 445.48C590.308 445.864 590.436 446.056 590.756 446.056H602.756C603.14 446.056 603.268 445.864 603.14 445.48L596.996 423.976C596.932 423.784 596.836 423.688 596.708 423.688C596.58 423.688 596.484 423.784 596.42 423.976L590.372 445.48Z" fill="black"/>
</g>
<defs>
<clipPath id="clip0">
<rect width="651" height="469" fill="white"/>
</clipPath>
</defs>
</svg>
